PathFileType	4	(X/Y/Z)	RBDS018static.trc
DataRate	CameraRate	NumFrames	NumMarkers	Units	OrigDataRate	OrigDataStartFrame	OrigNumFrames
150.000000	150.000000	4	48	mm	150.000000	56	150
Frame#	Time	L.Ankle			L.Ankle.Medial			L.ASIS			L.GTR			L.Heel.Bottom			L.Heel.Lateral			L.Heel.Top			L.HF			L.Iliac.Crest			L.Knee			L.Knee.Medial			L.MT1			L.MT2			L.MT5			L.PSIS			L.Shank.Bottom.Lateral			L.Shank.Bottom.Medial			L.Shank.Top.Lateral			L.Shank.Top.Medial			L.Thigh.Bottom.Lateral			L.Thigh.Bottom.Medial			L.Thigh.Top.Lateral			L.Thigh.Top.Medial			L.TT			R.Ankle			R.Ankle.Medial			R.ASIS			R.GTR			R.Heel.Bottom			R.Heel.Lateral			R.Heel.Top			R.HF			R.Iliac.Crest			R.Knee			R.Knee.Medial			R.MT1			R.MT2			R.MT5			R.PSIS			R.Shank.Bottom.Lateral			R.Shank.Bottom.Medial			R.Shank.Top.Lateral			R.Shank.Top.Medial			R.Thigh.Bottom.Lateral			R.Thigh.Bottom.Medial			R.Thigh.Top.Lateral			R.Thigh.Top.Medial			R.TT			
		X1	Y1	Z1	X2	Y2	Z2	X3	Y3	Z3	X4	Y4	Z4	X5	Y5	Z5	X6	Y6	Z6	X7	Y7	Z7	X8	Y8	Z8	X9	Y9	Z9	X10	Y10	Z10	X11	Y11	Z11	X12	Y12	Z12	X13	Y13	Z13	X14	Y14	Z14	X15	Y15	Z15	X16	Y16	Z16	X17	Y17	Z17	X18	Y18	Z18	X19	Y19	Z19	X20	Y20	Z20	X21	Y21	Z21	X22	Y22	Z22	X23	Y23	Z23	X24	Y24	Z24	X25	Y25	Z25	X26	Y26	Z26	X27	Y27	Z27	X28	Y28	Z28	X29	Y29	Z29	X30	Y30	Z30	X31	Y31	Z31	X32	Y32	Z32	X33	Y33	Z33	X34	Y34	Z34	X35	Y35	Z35	X36	Y36	Z36	X37	Y37	Z37	X38	Y38	Z38	X39	Y39	Z39	X40	Y40	Z40	X41	Y41	Z41	X42	Y42	Z42	X43	Y43	Z43	X44	Y44	Z44	X45	Y45	Z45	X46	Y46	Z46	X47	Y47	Z47	X48	Y48	Z48	

57	0.3733333333333334	710.956298828125	105.5421829223633	1044.358032226563	737.9656372070313	116.4386672973633	1128.085327148438	858.6412963867188	1074.042846679688	1128.778198242188	795.5639038085938	970.7783203125	1048.987548828125	641.0545043945313	42.11789321899414	1087.310180664063	671.8433227539063	54.03217697143555	1040.976196289063	650.7899780273438	91.90908050537109	1085.204223632813	733.9307250976563	497.9202880859375	1031.481323242188	782.125	1141.207763671875	1081.671264648438	747.2403564453125	564.9221801757813	1042.777954101563	747.0932006835938	531.2716064453125	1170.727905273438	863.6060791015625	56.37324142456055	1128.343505859375	874.1085205078125	69.45119476318359	1074.713500976563	839.4697265625	54.04932022094727	1014.874145507813	679.79345703125	1080.228149414063	1182.553100585938	689.9166259765625	202.6462249755859	1034.53369140625	660.16455078125	201.6778106689453	1076.384155273438	680.1809692382813	282.4407958984375	1024.618286132813	650.6220092773438	285.8035583496094	1068.869750976563	748.73291015625	675.2753295898438	1032.96435546875	691.9738159179688	680.9912109375	1079.146240234375	754.9002075195313	784.6768188476563	1028.42626953125	701.5285034179688	789.7501831054688	1073.662475585938	791.3482666015625	463.7150268554688	1086.869873046875	710.2659301757813	107.0056610107422	1414.472900390625	733.1775512695313	123.4166488647461	1330.657348632813	852.42333984375	1075.956298828125	1362.7373046875	789.62939453125	970.5493774414063	1428.491577148438	639.6323852539063	42.92577743530273	1374.434814453125	662.71484375	59.90907669067383	1410.475341796875	650.973388671875	92.84062957763672	1373.411376953125	742.0595092773438	490.7108154296875	1438.098510742188	777.0211791992188	1142.970947265625	1388.123657226563	743.3480834960938	555.1408081054688	1431.748779296875	742.6697387695313	533.247802734375	1299.96337890625	861.5675048828125	59.85185241699219	1326.372314453125	875.0634765625	69.59317016601563	1377.285766601563	838.1461181640625	55.90585327148438	1437.727172851563	677.7422485351563	1084.347045898438	1291.594482421875	705.8026733398438	211.6090545654297	1436.120361328125	662.5184936523438	214.6699371337891	1400.799682617188	699.2838134765625	291.89990234375	1449.1220703125	658.2603149414063	293.9229736328125	1413.864379882813	748.8870239257813	668.6798095703125	1443.302001953125	689.8276977539063	674.5272216796875	1400.493286132813	753.3487548828125	779.285400390625	1448.27880859375	698.1050415039063	784.0291137695313	1408.012573242188	795.2118530273438	468.3056640625	1387.579956054688	
58	0.38	710.9506225585938	105.5403747558594	1044.352172851563	737.9606323242188	116.4328765869141	1128.076171875	858.5640869140625	1074.056518554688	1128.766235351563	795.4852294921875	970.7860107421875	1048.984375	641.0602416992188	42.11173248291016	1087.31298828125	671.8442993164063	54.02889633178711	1040.974487304688	650.7936401367188	91.90077972412109	1085.216796875	733.9013671875	497.9210205078125	1031.470092773438	782.071533203125	1141.193603515625	1081.763916015625	747.2118530273438	564.9125366210938	1042.768920898438	747.0578002929688	531.2816162109375	1170.721313476563	863.6010131835938	56.37410736083984	1128.339477539063	874.1116943359375	69.44384002685547	1074.709594726563	839.462646484375	54.04521179199219	1014.876525878906	679.7197875976563	1080.216186523438	1182.5576171875	689.9019775390625	202.6445159912109	1034.534790039063	660.1580200195313	201.6815185546875	1076.377807617188	680.1602783203125	282.4380798339844	1024.618408203125	650.6044311523438	285.7903137207031	1068.861450195313	748.6964111328125	675.2786254882813	1032.94091796875	691.9360961914063	680.978271484375	1079.115112304688	754.8605346679688	784.6779174804688	1028.384643554688	701.48974609375	789.7522583007813	1073.626220703125	791.3211669921875	463.7174377441406	1086.87646484375	710.260986328125	107.0019226074219	1414.479858398438	733.1731567382813	123.4194793701172	1330.65087890625	852.3750610351563	1075.966064453125	1362.711059570313	789.6078491210938	970.5460205078125	1428.47265625	639.6314697265625	42.91387176513672	1374.432373046875	662.7142944335938	59.90570449829102	1410.468505859375	650.9769897460938	92.82881927490234	1373.4072265625	742.0911254882813	490.7076721191406	1438.085205078125	776.9697265625	1142.964111328125	1388.105102539063	743.3746948242188	555.1214599609375	1431.744506835938	742.623779296875	533.2916259765625	1299.845947265625	861.5614013671875	59.84784698486328	1326.365966796875	875.0640869140625	69.59861755371094	1377.281127929688	838.1400146484375	55.89363861083984	1437.714477539063	677.694580078125	1084.327026367188	1291.588745117188	705.8185424804688	211.6097869873047	1436.124145507813	662.52099609375	214.6587982177734	1400.801025390625	699.3048706054688	291.8991394042969	1449.124877929688	658.2686157226563	293.9296264648438	1413.865600585938	748.9129028320313	668.6702880859375	1443.296508789063	689.8445434570313	674.5216674804688	1400.506958007813	753.3663940429688	779.2871704101563	1448.277465820313	698.1121826171875	784.0266723632813	1408.019897460938	795.224853515625	468.3006896972656	1387.572875976563	
59	0.3866666666666667	710.9539794921875	105.5313415527344	1044.348754882813	737.9557495117188	116.4304275512695	1128.077758789063	858.48193359375	1074.08349609375	1128.75634765625	795.4020385742188	970.80712890625	1048.973510742188	641.066162109375	42.10281372070313	1087.306518554688	671.85546875	54.02493667602539	1040.966918945313	650.7923583984375	91.89419555664063	1085.211303710938	733.8780517578125	497.9514770507813	1031.466796875	781.9776611328125	1141.230224609375	1081.668823242188	747.1731567382813	564.9202270507813	1042.761108398438	747.0283813476563	531.2803955078125	1170.731567382813	863.6052856445313	56.36641311645508	1128.344848632813	874.10302734375	69.44542694091797	1074.705444335938	839.4529418945313	54.0411376953125	1014.877868652344	679.6510009765625	1080.208618164063	1182.556518554688	689.8978271484375	202.6339111328125	1034.535034179688	660.1503295898438	201.6653594970703	1076.376953125	680.1602172851563	282.4286804199219	1024.618408203125	650.58984375	285.7913818359375	1068.871459960938	748.6867065429688	675.2672119140625	1032.928466796875	691.8966064453125	680.9805297851563	1079.097290039063	754.8232421875	784.6781005859375	1028.372436523438	701.4390869140625	789.7467041015625	1073.596435546875	791.293701171875	463.7302856445313	1086.876220703125	710.2648315429688	106.9898986816406	1414.482177734375	733.1770629882813	123.4093170166016	1330.662475585938	852.3335571289063	1075.968017578125	1362.693115234375	789.5890502929688	970.5403442382813	1428.463500976563	639.6307983398438	42.91357421875	1374.435668945313	662.7173461914063	59.89648056030273	1410.472534179688	650.9740600585938	92.82018280029297	1373.402221679688	742.1173095703125	490.6948852539063	1438.087646484375	776.9246215820313	1142.945190429688	1388.09326171875	743.395263671875	555.1214599609375	1431.742065429688	742.68310546875	533.23388671875	1299.953247070313	861.5651245117188	59.85177612304688	1326.374877929688	875.0548706054688	69.60055541992188	1377.288696289063	838.1515502929688	55.90554046630859	1437.723999023438	677.6478271484375	1084.307373046875	1291.580322265625	705.825927734375	211.6043853759766	1436.129150390625	662.5245361328125	214.6625671386719	1400.809936523438	699.3057861328125	291.902099609375	1449.12744140625	658.2695922851563	293.9219665527344	1413.868408203125	748.9298095703125	668.6784057617188	1443.301025390625	689.870361328125	674.4985961914063	1400.516845703125	753.38330078125	779.2801513671875	1448.279296875	698.116943359375	784.0244140625	1408.042114257813	795.236572265625	468.2958068847656	1387.568481445313	
60	0.3933333333333334	710.96240234375	105.5252227783203	1044.344482421875	737.9578247070313	116.4310455322266	1128.080444335938	858.4058837890625	1074.0888671875	1128.7412109375	795.320556640625	970.8065795898438	1048.968017578125	641.0697631835938	42.08929824829102	1087.303100585938	671.8590698242188	54.01462554931641	1040.962036132813	650.7982177734375	91.89141845703125	1085.199829101563	733.8372802734375	497.9241638183594	1031.443725585938	781.8975219726563	1141.229736328125	1081.6552734375	747.1403198242188	564.908935546875	1042.747802734375	746.9833984375	531.2774047851563	1170.721801757813	863.5966796875	56.35896682739258	1128.354858398438	874.0955810546875	69.43854522705078	1074.700073242188	839.4614868164063	54.04998016357422	1014.862854003906	679.5817260742188	1080.188842773438	1182.560913085938	689.8961791992188	202.6172485351563	1034.527099609375	660.1470336914063	201.65478515625	1076.377807617188	680.1417236328125	282.4124755859375	1024.615356445313	650.5767822265625	285.7770080566406	1068.850708007813	748.6574096679688	675.2745361328125	1032.917846679688	691.8609008789063	680.9762573242188	1079.071044921875	754.7704467773438	784.6825561523438	1028.349487304688	701.3914794921875	789.749755859375	1073.559326171875	791.282958984375	463.7356262207031	1086.85302734375	710.250244140625	106.9844665527344	1414.481079101563	733.1797485351563	123.3996963500977	1330.662719726563	852.2896118164063	1075.982055664063	1362.6640625	789.5704345703125	970.5396728515625	1428.451049804688	639.6309814453125	42.90898895263672	1374.434448242188	662.708984375	59.89975738525391	1410.476440429688	650.9696044921875	92.83159637451172	1373.408447265625	742.1336669921875	490.6952819824219	1438.083740234375	776.8839111328125	1142.94677734375	1388.054565429688	743.413330078125	555.1115112304688	1431.737060546875	742.6286010742188	533.28271484375	1299.8359375	861.5593872070313	59.85282135009766	1326.372436523438	875.0531005859375	69.59783935546875	1377.291870117188	838.1349487304688	55.86393737792969	1437.704223632813	677.6038208007813	1084.291137695313	1291.586181640625	705.8289184570313	211.6008605957031	1436.134399414063	662.5234985351563	214.6618347167969	1400.815551757813	699.3123168945313	291.8980407714844	1449.1318359375	658.2804565429688	293.9198913574219	1413.873779296875	748.9583740234375	668.6669921875	1443.299926757813	689.8826293945313	674.5032958984375	1400.531494140625	753.39208984375	779.2809448242188	1448.278930664063	698.12939453125	784.0084228515625	1408.06103515625	795.2498168945313	468.2868957519531	1387.555908203125	
